HIERARCHY
ROOT joint_Root
{
	OFFSET 0.0 0.0 0.0
	CHANNELS 6 Xposition Yposition Zposition Zrotation Xrotation Yrotation 
	JOINT Hips
	{
		OFFSET -17.1583 93.1646 452.98
		CHANNELS 6 Xposition Yposition Zposition Zrotation Xrotation Yrotation 
		JOINT Spine
		{
			OFFSET 15.7357 0.0 0.0
			CHANNELS 6 Xposition Yposition Zposition Zrotation Xrotation Yrotation 
			JOINT Chest
			{
				OFFSET 8.98455 -0.406207 0.0
				CHANNELS 6 Xposition Yposition Zposition Zrotation Xrotation Yrotation 
				JOINT Neck
				{
					OFFSET 16.3773 0.0 0.0
					CHANNELS 6 Xposition Yposition Zposition Zrotation Xrotation Yrotation 
					JOINT Head
					{
						OFFSET 6.45672 0.0 0.0
						CHANNELS 6 Xposition Yposition Zposition Zrotation Xrotation Yrotation 
						End Site
						{
							OFFSET 0.0 0.0 0.0
						}
					}
				}
				JOINT Shoulder_L
				{
					OFFSET 12.9942 -0.242716 4.98039
					CHANNELS 6 Xposition Yposition Zposition Zrotation Xrotation Yrotation 
					JOINT UpperArm_L
					{
						OFFSET 5.34809 0.0 0.0
						CHANNELS 6 Xposition Yposition Zposition Zrotation Xrotation Yrotation 
						JOINT LowerArm_L
						{
							OFFSET 24.3286 1.87007e-05 0.0
							CHANNELS 6 Xposition Yposition Zposition Zrotation Xrotation Yrotation 
							JOINT Hand_L
							{
								OFFSET 22.2916 0.0 0.0
								CHANNELS 6 Xposition Yposition Zposition Zrotation Xrotation Yrotation 
								End Site
								{
									OFFSET 0.0 0.0 0.0
								}
							}
						}
					}
				}
				JOINT Shoulder_R
				{
					OFFSET 12.9945 -0.242716 -4.98039
					CHANNELS 6 Xposition Yposition Zposition Zrotation Xrotation Yrotation 
					JOINT UpperArm_R
					{
						OFFSET -5.34813 0.0 0.0
						CHANNELS 6 Xposition Yposition Zposition Zrotation Xrotation Yrotation 
						JOINT LowerArm_R
						{
							OFFSET -24.3289 0.000322201 0.0
							CHANNELS 6 Xposition Yposition Zposition Zrotation Xrotation Yrotation 
							JOINT Hand_R
							{
								OFFSET -22.2915 -0.000108084 0.0
								CHANNELS 6 Xposition Yposition Zposition Zrotation Xrotation Yrotation 
								End Site
								{
									OFFSET 0.0 0.0 0.0
								}
							}
						}
					}
				}
			}
		}
		JOINT UpperLeg_L
		{
			OFFSET -2.19248 -6.46944 0.0
			CHANNELS 6 Xposition Yposition Zposition Zrotation Xrotation Yrotation 
			JOINT LowerLeg_L
			{
				OFFSET 39.0811 0.0 -1.23785e-05
				CHANNELS 6 Xposition Yposition Zposition Zrotation Xrotation Yrotation 
				JOINT Foot_L
				{
					OFFSET 40.9854 0.0 -1.26872e-05
					CHANNELS 6 Xposition Yposition Zposition Zrotation Xrotation Yrotation 
					JOINT Toes_L
					{
						OFFSET 11.7543 0.0 0.0
						CHANNELS 6 Xposition Yposition Zposition Zrotation Xrotation Yrotation 
						End Site
						{
							OFFSET 0.0 0.0 0.0
						}
					}
				}
			}
		}
		JOINT UpperLeg_R
		{
			OFFSET -2.19251 6.46944 0.0
			CHANNELS 6 Xposition Yposition Zposition Zrotation Xrotation Yrotation 
			JOINT LowerLeg_R
			{
				OFFSET -39.0811 -0.00228153 -0.0401928
				CHANNELS 6 Xposition Yposition Zposition Zrotation Xrotation Yrotation 
				JOINT Foot_R
				{
					OFFSET -40.9854 0.0 0.0
					CHANNELS 6 Xposition Yposition Zposition Zrotation Xrotation Yrotation 
					JOINT Toes_R
					{
						OFFSET -11.7543 0.0 0.0
						CHANNELS 6 Xposition Yposition Zposition Zrotation Xrotation Yrotation 
						End Site
						{
							OFFSET 0.0 0.0 0.0
						}
					}
				}
			}
		}
	}
}
MOTION
Frames:	4
Frame Time:	0.0333333
0.000000 0.000000 0.000000 0.000000 0.000000 -0.000000 -0.408001 90.042000 479.704000 -87.594700 -3.472410 -178.796000 15.735700 0.000005 -0.000001 94.516300 86.744400 -91.968700 8.984550 -0.406207 -0.000000 -1.276940 0.311692 5.096880 16.377300 -0.000001 -0.000001 3.087130 1.154810 -3.189330 6.456720 -0.000001 -0.000000 11.978900 0.163002 -3.829810 12.994200 -0.242716 4.980390 -92.520800 7.545120 -71.464200 5.348090 -0.000007 -0.000001 -70.077800 -6.416420 3.173950 24.328600 0.000019 0.000005 1.267130 45.589400 -1.773730 22.291600 -0.000001 0.000005 -16.229000 4.853100 10.297000 12.994500 -0.242716 -4.980390 88.575400 4.416040 -72.100900 -5.348130 -0.000001 -0.000004 -64.632500 26.750200 -10.831700 -24.328900 0.000322 -0.000009 2.589700 7.803140 -18.436000 -22.291500 -0.000108 -0.000004 2.596720 5.211000 2.452790 -2.192480 -6.469440 -0.000000 -171.339000 -1.801460 -13.977700 39.081100 -0.000007 -0.000012 0.344294 -0.153731 65.938200 40.985400 -0.000006 -0.000013 -10.007900 12.056700 -40.781900 11.754300 -0.000000 0.000003 0.001742 0.037928 -15.038200 -2.192510 6.469440 -0.000001 -175.763000 1.770230 172.652000 -39.081100 -0.002282 -0.040193 -0.018920 0.034129 33.060900 -40.985400 0.000008 0.000006 -6.562920 -3.069990 -79.040000 -11.754300 -0.000006 -0.000006 -0.005498 0.233872 -7.079460
0.000000 0.000000 0.000000 0.000000 0.000000 -0.000000 -0.647281 91.392500 476.358000 -89.458400 -2.035060 -179.140000 15.735700 0.000005 -0.000001 109.178000 86.587300 -107.572000 8.984550 -0.406207 -0.000000 -1.347100 2.114010 3.236110 16.377300 -0.000001 -0.000001 3.361450 1.181130 -2.497250 6.456720 -0.000001 -0.000000 11.922000 -0.256404 -3.501950 12.994200 -0.242716 4.980390 -92.494200 6.945650 -70.189400 5.348090 -0.000007 -0.000001 -64.667300 -8.678440 7.606010 24.328600 0.000019 0.000005 4.054940 43.570900 -5.875060 22.291600 -0.000001 0.000005 -15.439900 4.969160 7.985020 12.994500 -0.242716 -4.980390 88.916000 3.440430 -72.500400 -5.348130 -0.000001 -0.000004 -64.037600 26.905800 -14.329000 -24.328900 0.000322 -0.000009 2.751070 5.957480 -24.877200 -22.291500 -0.000108 -0.000004 4.912400 5.242110 1.642870 -2.192480 -6.469440 -0.000000 -174.061000 -3.701130 -18.099000 39.081100 -0.000007 -0.000012 0.302637 -0.153998 63.030000 40.985400 -0.000006 -0.000013 -10.181900 11.959000 -47.802900 11.754300 -0.000000 0.000003 0.001682 0.036103 -15.112200 -2.192510 6.469440 -0.000001 -178.058000 1.664460 177.508000 -39.081100 -0.002282 -0.040193 -0.017240 0.040385 26.966700 -40.985400 0.000008 0.000006 -6.304900 -1.918000 -75.435600 -11.754300 -0.000006 -0.000006 -0.002475 0.202176 -8.370260
0.000000 0.000000 0.000000 0.000000 0.000000 -0.000000 -0.808447 92.437900 473.192000 -90.586600 -0.596066 -179.799000 15.735700 0.000005 -0.000001 120.824000 86.287500 -119.869000 8.984550 -0.406207 -0.000000 -1.420790 3.727230 1.955270 16.377300 -0.000001 -0.000001 3.027390 1.275530 -2.040840 6.456720 -0.000001 -0.000000 11.178000 -0.676447 -3.379950 12.994200 -0.242716 4.980390 -92.499300 6.499750 -68.913300 5.348090 -0.000007 -0.000001 -59.100300 -10.022700 11.384100 24.328600 0.000019 0.000005 5.155740 34.770400 -8.998050 22.291600 -0.000001 0.000005 -11.956500 5.074830 5.698610 12.994500 -0.242716 -4.980390 89.109900 2.886890 -72.857400 -5.348130 -0.000001 -0.000004 -62.570400 26.059500 -16.915600 -24.328900 0.000322 -0.000009 1.870570 2.859160 -33.288500 -22.291500 -0.000108 -0.000004 5.780220 5.263100 1.086260 -2.192480 -6.469440 -0.000000 -176.125000 -5.095860 -21.436700 39.081100 -0.000007 -0.000012 0.225018 -0.148187 56.632200 40.985400 -0.000006 -0.000013 -9.766870 12.918000 -53.412600 11.754300 -0.000000 0.000003 0.001857 0.041593 -14.889600 -2.192510 6.469440 -0.000001 -179.787000 2.175060 -178.880000 -39.081100 -0.002282 -0.040193 -0.012250 0.038575 21.977700 -40.985400 0.000008 0.000006 -6.904660 -0.220968 -71.635300 -11.754300 -0.000006 -0.000006 -0.000457 0.175032 -9.473680
0.000000 0.000000 0.000000 0.000000 0.000000 -0.000000 -0.911381 93.021900 470.180000 -91.248500 0.311506 179.171000 15.735700 0.000005 -0.000001 128.259000 86.109500 -127.747000 8.984550 -0.406207 -0.000000 -1.679040 4.774780 1.093940 16.377300 -0.000001 -0.000001 2.376380 1.453690 -2.162060 6.456720 -0.000001 -0.000000 10.036700 -1.009050 -2.964510 12.994200 -0.242716 4.980390 -92.368200 5.887990 -68.043100 5.348090 -0.000007 -0.000001 -54.108400 -11.335600 14.760400 24.328600 0.000019 0.000005 4.385430 22.992000 -11.117000 22.291600 -0.000001 0.000005 -8.191480 5.091570 5.298600 12.994500 -0.242716 -4.980390 89.187400 2.722690 -73.374700 -5.348130 -0.000001 -0.000004 -60.672300 24.589800 -18.781600 -24.328900 0.000322 -0.000009 0.060108 0.071480 -42.199400 -22.291500 -0.000108 -0.000004 7.025870 5.311870 -0.251058 -2.192480 -6.469440 -0.000000 -177.630000 -5.500160 -23.990500 39.081100 -0.000007 -0.000012 0.146204 -0.138392 46.571700 40.985400 -0.000006 -0.000013 -9.866250 13.880900 -55.043600 11.754300 -0.000000 0.000003 0.001956 0.045066 -14.748700 -2.192510 6.469440 -0.000001 178.708000 4.496600 -176.138000 -39.081100 -0.002282 -0.040193 -0.005264 0.026711 17.825000 -40.985400 0.000008 0.000006 -6.446530 2.524030 -68.256600 -11.754300 -0.000006 -0.000006 0.001137 0.145619 -10.667900
